<svg xmlns="http://www.w3.org/2000/svg" width="113.984" height="31.951" viewBox="0 0 113.984 31.951">
  <g id="Group_161" data-name="Group 161" transform="translate(-256.41 -338.61)">
    <path id="Path_85" data-name="Path 85" d="M264.028,397.253A11.674,11.674,0,0,1,265.706,393a23.012,23.012,0,0,1,4.451-4.761,38.941,38.941,0,0,0,4.82-4.916L276.045,382h-8.405l-.236.234c-.6.583-1.249,1.209-1.948,1.865a31.341,31.341,0,0,0-5.8,7.191,17.891,17.891,0,0,0-2.1,8.893v2.931h22.367v-5.86ZM279.1,402.3H258.362v-2.119a17.025,17.025,0,0,1,2-8.493,30.407,30.407,0,0,1,5.655-7q1.1-1.027,1.958-1.875h6.372a37.877,37.877,0,0,1-4.721,4.81,23.63,23.63,0,0,0-4.6,4.932,12.717,12.717,0,0,0-1.948,5.511H279.1Z" transform="translate(-0.908 -33.034)"/>
    <path id="Path_86" data-name="Path 86" d="M391.869,397.253V387.81h11.117V382H385.72v21.113H406.5v-5.86Zm13.817,5.048H386.533V382.813h15.641V387H391.056v11.068h14.629Z" transform="translate(-103.043 -33.034)"/>
    <path id="Path_87" data-name="Path 87" d="M507.25,382v21.113H513.4V382Zm5.336,20.3h-4.524V382.813h4.524ZM526.452,382v21.113H532.6V382Zm5.336,20.3h-4.524V382.813h4.524Z" transform="translate(-199.887 -33.034)"/>
    <path id="Path_88" data-name="Path 88" d="M686.772,382.713l-.087-.713h-6.608l.156.947a18.187,18.187,0,0,1,.24,2.655,17.16,17.16,0,0,1-.754,4.855,11.474,11.474,0,0,1-2.021,3.823,9.673,9.673,0,0,1-3.175,2.529,10.025,10.025,0,0,1-8.418,0,9.638,9.638,0,0,1-3.177-2.529,11.467,11.467,0,0,1-2.019-3.823,17.138,17.138,0,0,1-.756-4.855,18.3,18.3,0,0,1,.24-2.653l.16-.949H653.94l-.085.715a26.65,26.65,0,0,0-.185,2.9,22.942,22.942,0,0,0,1.225,7.432,16.142,16.142,0,0,0,3.372,5.671,14.938,14.938,0,0,0,5.263,3.614,18.809,18.809,0,0,0,13.565,0,14.912,14.912,0,0,0,5.265-3.614,16.151,16.151,0,0,0,3.374-5.671,23.079,23.079,0,0,0,1.225-7.453A26.337,26.337,0,0,0,686.772,382.713Zm-1.8,10.059a15.278,15.278,0,0,1-3.2,5.389,14.042,14.042,0,0,1-4.981,3.417,17.993,17.993,0,0,1-12.945,0,14.061,14.061,0,0,1-4.981-3.417,15.276,15.276,0,0,1-3.2-5.389,22.062,22.062,0,0,1-1.178-7.17,25.631,25.631,0,0,1,.179-2.789h4.932a18.907,18.907,0,0,0-.252,2.789,17.87,17.87,0,0,0,.794,5.1,12.175,12.175,0,0,0,2.165,4.091,10.4,10.4,0,0,0,3.441,2.742,10.839,10.839,0,0,0,9.145,0,10.4,10.4,0,0,0,3.439-2.742,12.178,12.178,0,0,0,2.167-4.091,17.871,17.871,0,0,0,.792-5.1,18.909,18.909,0,0,0-.25-2.789h4.93a25.622,25.622,0,0,1,.181,2.789A22.115,22.115,0,0,1,684.968,392.772Z" transform="translate(-316.565 -33.034)"/>
    <path id="Path_89" data-name="Path 89" d="M507,341.61v6.149h25.391V341.61Zm24.579,5.336H507.813v-4.524h23.766Z" transform="translate(-199.688 -3)"/>
    <path id="Path_90" data-name="Path 90" d="M384.41,341.61v6.149h21.042V341.61Zm20.23,5.336H385.223v-4.524H404.64Z" transform="translate(-101.999 -3)"/>
    <path id="Path_91" data-name="Path 91" d="M256.41,341.61v6.149h21.113V341.61Zm20.3,5.336H257.223v-4.524h19.488Z" transform="translate(0 -3)"/>
    <path id="Path_92" data-name="Path 92" d="M654,341.61v6.149h33.11V341.61Zm32.3,5.336H654.813v-4.524H686.3Z" transform="translate(-316.828 -3)"/>
  </g>
</svg>
